Antonio-Regular.ufo
<glyph name="semicolon" format="2">
  <advance width="561"/>
  <unicode hex="003B"/>
  <outline>
    <contour>
      <point x="190" y="-103" type="line"/>
      <point x="314" y="-103" type="line"/>
      <point x="428" y="291" type="line"/>
      <point x="428" y="534" type="line"/>
      <point x="202" y="534" type="line"/>
      <point x="202" y="282" type="line"/>
      <point x="276" y="282" type="line"/>
    </contour>
    <contour>
      <point x="192" y="1047" type="line"/>
      <point x="417" y="1047" type="line"/>
      <point x="417" y="1307" type="line"/>
      <point x="192" y="1307" type="line"/>
    </contour>
  </outline>
</glyph>
<glyph name="I" format="2">
  <advance width="495"/>
  <unicode hex="0049"/>
  <anchor x="248" y="0" name="bottom"/>
  <anchor x="261" y="0" name="ogonek"/>
  <anchor x="248" y="1760" name="top"/>
  <anchor x="20" y="1760" name="topleft"/>
  <outline>
    <contour>
      <point x="144" y="0" type="line"/>
      <point x="351" y="0" type="line"/>
      <point x="351" y="1760" type="line"/>
      <point x="144" y="1760" type="line"/>
    </contour>
  </outline>
</glyph>
<glyph name="e" format="2">
  <advance width="881"/>
  <unicode hex="0065"/>
  <anchor x="441" y="0" name="bottom"/>
  <anchor x="526" y="0" name="ogonek"/>
  <anchor x="441" y="1500" name="top"/>
  <outline>
    <contour>
      <point x="454" y="-18" type="curve" smooth="yes"/>
      <point x="747" y="-18"/>
      <point x="774" y="186"/>
      <point x="774" y="498" type="curve" smooth="yes"/>
      <point x="774" y="562" type="line"/>
      <point x="573" y="562" type="line"/>
      <point x="573" y="441" type="line" smooth="yes"/>
      <point x="573" y="265"/>
      <point x="569" y="153"/>
      <point x="456" y="153" type="curve" smooth="yes"/>
      <point x="340" y="153"/>
      <point x="330" y="254"/>
      <point x="330" y="444" type="curve" smooth="yes"/>
      <point x="330" y="743" type="line"/>
      <point x="778" y="743" type="line"/>
      <point x="778" y="1026" type="line" smooth="yes"/>
      <point x="778" y="1315"/>
      <point x="737" y="1518"/>
      <point x="462" y="1518" type="curve" smooth="yes"/>
      <point x="190" y="1518"/>
      <point x="124" y="1317"/>
      <point x="124" y="1035" type="curve" smooth="yes"/>
      <point x="124" y="505" type="line" smooth="yes"/>
      <point x="124" y="192"/>
      <point x="167" y="-18"/>
    </contour>
    <contour>
      <point x="329" y="882" type="line"/>
      <point x="329" y="1066" type="line" smooth="yes"/>
      <point x="329" y="1233"/>
      <point x="343" y="1349"/>
      <point x="462" y="1349" type="curve" smooth="yes"/>
      <point x="567" y="1349"/>
      <point x="573" y="1252"/>
      <point x="573" y="1073" type="curve" smooth="yes"/>
      <point x="573" y="882" type="line"/>
    </contour>
  </outline>
</glyph>
<glyph name="l" format="2">
  <advance width="503"/>
  <unicode hex="006C"/>
  <anchor x="229" y="1779" name="#exit"/>
  <anchor x="252" y="0" name="bottom"/>
  <anchor x="252" y="890" name="center"/>
  <anchor x="252" y="1779" name="top"/>
  <anchor x="484" y="1779" name="topright"/>
  <outline>
    <contour>
      <point x="147" y="0" type="line"/>
      <point x="352" y="0" type="line"/>
      <point x="352" y="1779" type="line"/>
      <point x="147" y="1779" type="line"/>
    </contour>
  </outline>
</glyph>
<glyph name="t" format="2">
  <advance width="596"/>
  <unicode hex="0074"/>
  <anchor x="408" y="1783" name="#exit"/>
  <anchor x="373" y="0" name="bottom"/>
  <anchor x="298" y="750" name="center"/>
  <anchor x="276" y="1760" name="top"/>
  <anchor x="576" y="1500" name="topright"/>
  <outline>
    <contour>
      <point x="408" y="-9" type="curve" smooth="yes"/>
      <point x="549" y="-9" type="line"/>
      <point x="549" y="154" type="line"/>
      <point x="401" y="154"/>
      <point x="385" y="165"/>
      <point x="385" y="241" type="curve" smooth="yes"/>
      <point x="385" y="1336" type="line"/>
      <point x="547" y="1336" type="line"/>
      <point x="547" y="1488" type="line"/>
      <point x="385" y="1488" type="line"/>
      <point x="385" y="1760" type="line"/>
      <point x="180" y="1760" type="line"/>
      <point x="180" y="1488" type="line"/>
      <point x="43" y="1488" type="line"/>
      <point x="43" y="1336" type="line"/>
      <point x="180" y="1336" type="line"/>
      <point x="180" y="223" type="line" smooth="yes"/>
      <point x="180" y="54"/>
      <point x="215" y="-9"/>
    </contour>
  </outline>
</glyph>
<glyph name="yen" format="2">
  <advance width="827"/>
  <unicode hex="00A5"/>
  <anchor x="414" y="0" name="bottom"/>
  <anchor x="414" y="1760" name="top"/>
  <anchor x="20" y="1760" name="topleft"/>
  <outline>
    <contour>
      <point x="75" y="391" type="line"/>
      <point x="753" y="391" type="line"/>
      <point x="753" y="507" type="line"/>
      <point x="496" y="507" type="line"/>
      <point x="496" y="682" type="line"/>
      <point x="753" y="682" type="line"/>
      <point x="753" y="798" type="line"/>
      <point x="75" y="798" type="line"/>
      <point x="75" y="682" type="line"/>
      <point x="367" y="682" type="line"/>
      <point x="367" y="507" type="line"/>
      <point x="75" y="507" type="line"/>
    </contour>
    <component base="Y"/>
  </outline>
</glyph>
<glyph name="degree" format="2">
  <advance width="915"/>
  <unicode hex="00B0"/>
  <outline>
    <contour>
      <point x="457" y="1114" type="curve" smooth="yes"/>
      <point x="634" y="1114"/>
      <point x="811" y="1226"/>
      <point x="811" y="1448" type="curve" smooth="yes"/>
      <point x="811" y="1671"/>
      <point x="634" y="1782"/>
      <point x="458" y="1782" type="curve" smooth="yes"/>
      <point x="281" y="1782"/>
      <point x="104" y="1671"/>
      <point x="104" y="1448" type="curve" smooth="yes"/>
      <point x="104" y="1225"/>
      <point x="280" y="1114"/>
    </contour>
    <contour>
      <point x="459" y="1235" type="curve" smooth="yes"/>
      <point x="359" y="1235"/>
      <point x="259" y="1306"/>
      <point x="259" y="1448" type="curve" smooth="yes"/>
      <point x="259" y="1590"/>
      <point x="358" y="1661"/>
      <point x="457" y="1661" type="curve" smooth="yes"/>
      <point x="557" y="1661"/>
      <point x="657" y="1590"/>
      <point x="657" y="1448" type="curve" smooth="yes"/>
      <point x="657" y="1306"/>
      <point x="558" y="1235"/>
    </contour>
  </outline>
</glyph>
<glyph name="Lslash" format="2">
  <advance width="748"/>
  <unicode hex="0141"/>
  <anchor x="398" y="0" name="bottom"/>
  <anchor x="348" y="880" name="center"/>
  <anchor x="258" y="1760" name="top"/>
  <anchor x="675" y="1760" name="topright"/>
  <outline>
    <contour>
      <point x="-1" y="764" type="line"/>
      <point x="554" y="987" type="line"/>
      <point x="554" y="1139" type="line"/>
      <point x="-1" y="916" type="line"/>
    </contour>
    <contour>
      <point x="144" y="0" type="line"/>
      <point x="676" y="0" type="line"/>
      <point x="676" y="171" type="line"/>
      <point x="351" y="171" type="line"/>
      <point x="351" y="1760" type="line"/>
      <point x="144" y="1760" type="line"/>
    </contour>
  </outline>
</glyph>
<glyph name="lslash" format="2">
  <advance width="676"/>
  <unicode hex="0142"/>
  <anchor x="320" y="0" name="bottom"/>
  <anchor x="320" y="890" name="center"/>
  <anchor x="320" y="1779" name="top"/>
  <anchor x="552" y="1779" name="topright"/>
  <outline>
    <contour>
      <point x="75" y="754" type="line"/>
      <point x="601" y="986" type="line"/>
      <point x="601" y="1153" type="line"/>
      <point x="75" y="921" type="line"/>
    </contour>
    <contour>
      <point x="215" y="0" type="line"/>
      <point x="420" y="0" type="line"/>
      <point x="420" y="1779" type="line"/>
      <point x="215" y="1779" type="line"/>
    </contour>
  </outline>
</glyph>
<glyph name="oe" format="2">
  <advance width="1358"/>
  <unicode hex="0153"/>
  <anchor x="679" y="0" name="bottom"/>
  <anchor x="679" y="1500" name="top"/>
  <outline>
    <contour>
      <point x="462" y="-18" type="curve" smooth="yes"/>
      <point x="566" y="-18"/>
      <point x="639" y="28"/>
      <point x="689" y="96" type="curve"/>
      <point x="738" y="27"/>
      <point x="810" y="-18"/>
      <point x="919" y="-18" type="curve" smooth="yes"/>
      <point x="1211" y="-18"/>
      <point x="1240" y="190"/>
      <point x="1240" y="502" type="curve" smooth="yes"/>
      <point x="1240" y="562" type="line"/>
      <point x="1038" y="562" type="line"/>
      <point x="1038" y="451" type="line"/>
      <point x="1038" y="276"/>
      <point x="1033" y="153"/>
      <point x="921" y="153" type="curve" smooth="yes"/>
      <point x="804" y="153"/>
      <point x="794" y="254"/>
      <point x="794" y="444" type="curve" smooth="yes"/>
      <point x="794" y="740" type="line"/>
      <point x="1243" y="740" type="line"/>
      <point x="1243" y="1026" type="line" smooth="yes"/>
      <point x="1243" y="1315"/>
      <point x="1201" y="1518"/>
      <point x="927" y="1518" type="curve" smooth="yes"/>
      <point x="819" y="1518"/>
      <point x="744" y="1472"/>
      <point x="693" y="1403" type="curve"/>
      <point x="642" y="1472"/>
      <point x="568" y="1518"/>
      <point x="462" y="1518" type="curve" smooth="yes"/>
      <point x="190" y="1518"/>
      <point x="124" y="1309"/>
      <point x="124" y="1027" type="curve" smooth="yes"/>
      <point x="124" y="497" type="line" smooth="yes"/>
      <point x="124" y="186"/>
      <point x="179" y="-18"/>
    </contour>
    <contour>
      <point x="462" y="153" type="curve" smooth="yes"/>
      <point x="349" y="153"/>
      <point x="331" y="268"/>
      <point x="331" y="439" type="curve" smooth="yes"/>
      <point x="331" y="1068" type="line" smooth="yes"/>
      <point x="331" y="1235"/>
      <point x="349" y="1347"/>
      <point x="462" y="1347" type="curve" smooth="yes"/>
      <point x="568" y="1347"/>
      <point x="588" y="1235"/>
      <point x="588" y="1068" type="curve" smooth="yes"/>
      <point x="588" y="439" type="line" smooth="yes"/>
      <point x="588" y="268"/>
      <point x="569" y="153"/>
    </contour>
    <contour>
      <point x="795" y="889" type="line"/>
      <point x="795" y="1061" type="line" smooth="yes"/>
      <point x="795" y="1228"/>
      <point x="808" y="1349"/>
      <point x="927" y="1349" type="curve" smooth="yes"/>
      <point x="1033" y="1349"/>
      <point x="1038" y="1252"/>
      <point x="1038" y="1073" type="curve" smooth="yes"/>
      <point x="1038" y="889" type="line"/>
    </contour>
  </outline>
</glyph>
<glyph name="jdotless" format="2">
  <advance width="520"/>
  <unicode hex="0237"/>
  <anchor x="260" y="-647" name="bottom"/>
  <anchor x="274" y="1500" name="top"/>
  <outline>
    <contour>
      <point x="200" y="-211" type="curve" smooth="yes"/>
      <point x="288" y="-211"/>
      <point x="375" y="-151"/>
      <point x="375" y="20" type="curve" smooth="yes"/>
      <point x="375" y="1500" type="line"/>
      <point x="170" y="1500" type="line"/>
      <point x="170" y="10" type="line" smooth="yes"/>
      <point x="170" y="-27"/>
      <point x="159" y="-59"/>
      <point x="120" y="-59" type="curve" smooth="yes"/>
      <point x="97" y="-59"/>
      <point x="75" y="-58"/>
      <point x="62" y="-56" type="curve"/>
      <point x="62" y="-200" type="line"/>
      <point x="85" y="-204"/>
      <point x="136" y="-211"/>
    </contour>
  </outline>
</glyph>
<glyph name="circumflexcomb" format="2">
  <unicode hex="0302"/>
  <anchor x="320" y="1500" name="_top"/>
  <anchor x="320" y="1932" name="top"/>
  <outline>
    <contour>
      <point x="50" y="1640" type="line"/>
      <point x="234" y="1640" type="line"/>
      <point x="320" y="1845" type="line"/>
      <point x="406" y="1640" type="line"/>
      <point x="589" y="1640" type="line"/>
      <point x="436" y="1932" type="line"/>
      <point x="204" y="1932" type="line"/>
    </contour>
  </outline>
</glyph>
<glyph name="tildecomb" format="2">
  <unicode hex="0303"/>
  <anchor x="363" y="1500" name="_top"/>
  <anchor x="363" y="1868" name="top"/>
  <outline>
    <contour>
      <point x="510" y="1640" type="curve" smooth="yes"/>
      <point x="586" y="1640"/>
      <point x="631" y="1667"/>
      <point x="666" y="1800" type="curve"/>
      <point x="675" y="1837" type="line"/>
      <point x="552" y="1865" type="line"/>
      <point x="531" y="1805"/>
      <point x="515" y="1797"/>
      <point x="496" y="1794" type="curve"/>
      <point x="492" y="1794" type="line" smooth="yes"/>
      <point x="442" y="1794"/>
      <point x="311" y="1868"/>
      <point x="230" y="1868" type="curve" smooth="yes"/>
      <point x="154" y="1868"/>
      <point x="89" y="1845"/>
      <point x="50" y="1710" type="curve"/>
      <point x="161" y="1661" type="line"/>
      <point x="179" y="1696"/>
      <point x="190" y="1715"/>
      <point x="212" y="1720" type="curve" smooth="yes"/>
      <point x="219" y="1722"/>
      <point x="227" y="1722"/>
      <point x="235" y="1722" type="curve" smooth="yes"/>
      <point x="318" y="1722"/>
      <point x="422" y="1640"/>
    </contour>
  </outline>
</glyph>
<glyph name="macroncomb" format="2">
  <unicode hex="0304"/>
  <anchor x="308" y="1500" name="_top"/>
  <anchor x="308" y="1782" name="top"/>
  <outline>
    <contour>
      <point x="50" y="1640" type="line"/>
      <point x="566" y="1640" type="line"/>
      <point x="566" y="1782" type="line"/>
      <point x="50" y="1782" type="line"/>
    </contour>
  </outline>
</glyph>
<glyph name="dotaccentcomb" format="2">
  <unicode hex="0307"/>
  <anchor x="153" y="1500" name="_top"/>
  <anchor x="153" y="1826" name="top"/>
  <outline>
    <contour>
      <point x="50" y="1638" type="line"/>
      <point x="256" y="1638" type="line"/>
      <point x="256" y="1826" type="line"/>
      <point x="50" y="1826" type="line"/>
    </contour>
  </outline>
</glyph>
<glyph name="dieresiscomb" format="2">
  <unicode hex="0308"/>
  <anchor x="407" y="1500" name="_top"/>
  <anchor x="407" y="1818" name="top"/>
  <outline>
    <contour>
      <point x="534" y="1640" type="line"/>
      <point x="764" y="1640" type="line"/>
      <point x="764" y="1818" type="line"/>
      <point x="534" y="1818" type="line"/>
    </contour>
    <contour>
      <point x="50" y="1640" type="line"/>
      <point x="280" y="1640" type="line"/>
      <point x="280" y="1818" type="line"/>
      <point x="50" y="1818" type="line"/>
    </contour>
  </outline>
</glyph>
<glyph name="ringcomb" format="2">
  <unicode hex="030A"/>
  <anchor x="250" y="1500" name="_top"/>
  <anchor x="250" y="2015" name="top"/>
  <outline>
    <contour>
      <point x="250" y="1640" type="curve" smooth="yes"/>
      <point x="380" y="1640"/>
      <point x="450" y="1728"/>
      <point x="450" y="1828" type="curve" smooth="yes"/>
      <point x="450" y="1927"/>
      <point x="380" y="2015"/>
      <point x="250" y="2015" type="curve" smooth="yes"/>
      <point x="121" y="2015"/>
      <point x="50" y="1927"/>
      <point x="50" y="1828" type="curve" smooth="yes"/>
      <point x="50" y="1728"/>
      <point x="121" y="1640"/>
    </contour>
    <contour>
      <point x="250" y="1712" type="curve" smooth="yes"/>
      <point x="179" y="1712"/>
      <point x="143" y="1770"/>
      <point x="143" y="1828" type="curve" smooth="yes"/>
      <point x="143" y="1886"/>
      <point x="179" y="1944"/>
      <point x="250" y="1944" type="curve" smooth="yes"/>
      <point x="323" y="1944"/>
      <point x="360" y="1886"/>
      <point x="360" y="1828" type="curve" smooth="yes"/>
      <point x="360" y="1770"/>
      <point x="323" y="1712"/>
    </contour>
  </outline>
</glyph>
<glyph name="commaaccentcomb" format="2">
  <unicode hex="0326"/>
  <anchor x="167" y="0" name="_bottom"/>
  <anchor x="167" y="-637" name="bottom"/>
  <outline>
    <contour>
      <point x="109" y="-637" type="line"/>
      <point x="199" y="-637" type="line"/>
      <point x="284" y="-340" type="line"/>
      <point x="284" y="-122" type="line"/>
      <point x="50" y="-122" type="line"/>
      <point x="50" y="-349" type="line"/>
      <point x="158" y="-349" type="line"/>
    </contour>
  </outline>
</glyph>
<glyph name="ogonekcomb" format="2">
  <unicode hex="0328"/>
  <anchor x="366" y="0" name="_ogonek"/>
  <outline>
    <contour>
      <point x="320" y="-626" type="curve" smooth="yes"/>
      <point x="388" y="-626"/>
      <point x="466" y="-604"/>
      <point x="489" y="-591" type="curve"/>
      <point x="489" y="-476" type="line"/>
      <point x="483" y="-478"/>
      <point x="426" y="-496"/>
      <point x="357" y="-496" type="curve" smooth="yes"/>
      <point x="259" y="-496"/>
      <point x="208" y="-447"/>
      <point x="208" y="-365" type="curve" smooth="yes"/>
      <point x="208" y="-259"/>
      <point x="289" y="-117"/>
      <point x="408" y="0" type="curve"/>
      <point x="323" y="0" type="line"/>
      <point x="146" y="-100"/>
      <point x="50" y="-262"/>
      <point x="50" y="-396" type="curve" smooth="yes"/>
      <point x="50" y="-529"/>
      <point x="138" y="-626"/>
    </contour>
  </outline>
</glyph>
<glyph name="mu" format="2">
  <advance width="971"/>
  <unicode hex="03BC"/>
  <outline>
    <contour>
      <point x="137" y="-186" type="line"/>
      <point x="338" y="-186" type="line"/>
      <point x="338" y="78" type="line"/>
      <point x="285" y="17" type="line"/>
      <point x="312" y="-6"/>
      <point x="350" y="-20"/>
      <point x="388" y="-20" type="curve" smooth="yes"/>
      <point x="510" y="-20"/>
      <point x="586" y="59"/>
      <point x="616" y="153" type="curve"/>
      <point x="616" y="0" type="line"/>
      <point x="822" y="0" type="line"/>
      <point x="822" y="1500" type="line"/>
      <point x="616" y="1500" type="line"/>
      <point x="616" y="340" type="line" smooth="yes"/>
      <point x="616" y="235"/>
      <point x="570" y="158"/>
      <point x="471" y="158" type="curve" smooth="yes"/>
      <point x="382" y="158"/>
      <point x="342" y="219"/>
      <point x="342" y="335" type="curve" smooth="yes"/>
      <point x="342" y="1500" type="line"/>
      <point x="137" y="1500" type="line"/>
    </contour>
  </outline>
</glyph>
<glyph name="partialdiff" format="2">
  <advance width="1015"/>
  <unicode hex="2202"/>
  <outline>
    <contour>
      <point x="436" y="-22" type="curve" smooth="yes"/>
      <point x="586" y="-22"/>
      <point x="749" y="92"/>
      <point x="782" y="334" type="curve" smooth="yes"/>
      <point x="874" y="981" type="line" smooth="yes"/>
      <point x="893" y="1121"/>
      <point x="899" y="1194"/>
      <point x="899" y="1260" type="curve" smooth="yes"/>
      <point x="899" y="1545"/>
      <point x="775" y="1664"/>
      <point x="561" y="1664" type="curve" smooth="yes"/>
      <point x="476" y="1664"/>
      <point x="378" y="1646"/>
      <point x="268" y="1612" type="curve"/>
      <point x="296" y="1471" type="line"/>
      <point x="386" y="1498"/>
      <point x="464" y="1514"/>
      <point x="527" y="1514" type="curve" smooth="yes"/>
      <point x="665" y="1514"/>
      <point x="721" y="1434"/>
      <point x="721" y="1283" type="curve" smooth="yes"/>
      <point x="721" y="1226"/>
      <point x="711" y="1145"/>
      <point x="697" y="1041" type="curve"/>
      <point x="621" y="1068"/>
      <point x="568" y="1081"/>
      <point x="511" y="1081" type="curve" smooth="yes"/>
      <point x="242" y="1081"/>
      <point x="138" y="742"/>
      <point x="132" y="372" type="curve" smooth="yes"/>
      <point x="128" y="129"/>
      <point x="233" y="-22"/>
    </contour>
    <contour>
      <point x="435" y="145" type="curve" smooth="yes"/>
      <point x="338" y="145"/>
      <point x="323" y="240"/>
      <point x="325" y="384" type="curve" smooth="yes"/>
      <point x="328" y="628"/>
      <point x="377" y="932"/>
      <point x="545" y="931" type="curve" smooth="yes"/>
      <point x="583" y="931"/>
      <point x="614" y="921"/>
      <point x="668" y="900" type="curve"/>
      <point x="594" y="362" type="line" smooth="yes"/>
      <point x="576" y="224"/>
      <point x="514" y="145"/>
    </contour>
  </outline>
</glyph>
<glyph name="notequal" format="2">
  <advance width="730"/>
  <unicode hex="2260"/>
  <outline>
    <contour>
      <point x="54" y="0" type="line"/>
      <point x="236" y="0" type="line"/>
      <point x="387" y="606" type="line"/>
      <point x="650" y="606" type="line"/>
      <point x="650" y="765" type="line"/>
      <point x="426" y="765" type="line"/>
      <point x="465" y="922" type="line"/>
      <point x="650" y="922" type="line"/>
      <point x="650" y="1080" type="line"/>
      <point x="505" y="1080" type="line"/>
      <point x="676" y="1768" type="line"/>
      <point x="493" y="1768" type="line"/>
      <point x="322" y="1080" type="line"/>
      <point x="66" y="1080" type="line"/>
      <point x="66" y="922" type="line"/>
      <point x="283" y="922" type="line"/>
      <point x="244" y="765" type="line"/>
      <point x="66" y="765" type="line"/>
      <point x="66" y="606" type="line"/>
      <point x="204" y="606" type="line"/>
    </contour>
  </outline>
</glyph>
<glyph name="caroncomb.alt" format="2">
  <anchor x="-150" y="2101" name="#entry"/>
  <anchor x="167" y="1500" name="_top"/>
  <anchor x="167" y="2101" name="top"/>
  <outline>
    <contour>
      <point x="119" y="1586" type="line"/>
      <point x="209" y="1586" type="line"/>
      <point x="294" y="1883" type="line"/>
      <point x="294" y="2101" type="line"/>
      <point x="60" y="2101" type="line"/>
      <point x="60" y="1874" type="line"/>
      <point x="168" y="1874" type="line"/>
    </contour>
  </outline>
</glyph>
